<svg id="Layer_1" data-name="Layer 1" xmlns="http://www.w3.org/2000/svg" viewBox="0 0 1347 440"><defs><style>.cls-1{fill:#f5bb23;}</style></defs><title>Delish-logo</title><path class="cls-1" d="M249.81,158.63l-34.4,220H93.81v-1c41.6,0,45.8-24.2,53.2-71l21.2-136c8.2-52.79,73.2-65.79,104.8-67.39v-.4c-26.2,1-51.8-9.8-76-19.8-24.6-10-49.6-20.2-75.2-20.2-21.8,0-41.2,12.2-41.2,33.4,0,18.8,14,25.2,26.4,25.2,10.8,0,22-5.2,30.4-16,46.8,21.2,16.4,80-30.4,80-29.6,0-59.2-22.39-59.2-57.59,0-37.2,30.8-66.4,74-66.4,50.8,0,99.2,40,146.8,40,8.8,0,12.8-5.2,12.8-10,0-6.4-6.8-12.8-18-6-9.2-17.2,4-31.2,18.4-31.2,10.8,0,22,6.4,22,21.6s-16,22.4-23.6,24.8a148.32,148.32,0,0,1,18.8-1.2c58.4,0,119.2,34,119.2,123.19,0,81.6-51.2,215.6-232.4,168l.2-1c126,22.4,152.2-133,152.2-205.79,0-51.6-11.6-82-53.6-82C268.61,101.83,256.61,115.43,249.81,158.63Z"/><path class="cls-1" d="M582.6,195c0-15.59-6.39-27.79-22.19-27.79-35.4,0-56.4,57.19-56.4,98.19,0,39.4,17.8,75,59.59,75,18.4,0,42-7.8,60.8-30.8l1,.6c-25.2,41.6-67.59,71.2-114,71.2-48.4,0-82.8-32-82.8-85.6,0-68.4,58.4-130,134.39-130,31.2,0,76.8,7.6,76.8,44.79,0,29.6-33.2,66-131.59,40l.2-.4C566.41,257.42,582.6,223.42,582.6,195Z"/><path class="cls-1" d="M723,293.42c-4.4,28-16.2,79.8-.8,84.4l-.8.8a144.25,144.25,0,0,1-27.6,3.2c-29.6,0-54.4-13.4-46.4-62.8L684.2,89.83c1.8-11.6-4-16-17-11l-.6-.6c14-6.8,42-15.6,61.2-15.6,22.8,0,30.8,8.4,26.4,35.6Z"/><path class="cls-1" d="M834.6,293.42c-4.6,28-13.6,77.6,0,84.4l-.4.8a133.6,133.6,0,0,1-28,3.2c-30,0-55.4-13.6-47.2-62.8l20.8-126c1.8-11.59-4-16-17-11l-.6-.59c14-6.81,42-15.6,61.2-15.6,22.8,0,30.8,8.4,26.4,35.59ZM798,149.83c8.4-13.2,11.8-44.4-.2-59.6,9.6-17.6,28-28.8,44.4-28.8,15.2,0,33.2,9.2,33.2,31.6,0,31.2-33.6,56-77.2,57.2Z"/><path class="cls-1" d="M857.4,339.42c0-20,15.2-38.4,37.2-38.4,15.6,0,31.2,9.6,28.8,29.2a27.86,27.86,0,0,0-18.8,26.4c0,12.2,6.4,23.4,35.8,23.4,24.4,0,62.6-7.6,62.6-31.2,0-42.6-124.8-38.4-124.8-106.2,0-55.2,60.8-76.79,113.2-76.79,31,0,74,7.6,74,38,0,18-13.6,34.4-33.2,34.4-13.6,0-26.4-9.2-24.4-26.8,8.8-3.2,16.4-11.6,16.4-21.59,0-13.6-13.4-22.6-36.8-22.6-30.6,0-47.6,15.2-47.6,31.59,0,44.2,122.8,30,122.8,103.2,0,53.4-66.6,79.4-126.2,79.4C904.2,381.42,857.4,373.82,857.4,339.42Z"/><path class="cls-1" d="M1154.4,291.82l1.19.4c27-103,65.6-126.39,101.6-126.39,48.2,0,46.4,41.59,41.8,68.79l-9.6,56.8c-6,34.4-11.2,83.2,7.6,86.4l-.8.8a160.74,160.74,0,0,1-29.2,3c-33,0-60.8-14.4-52.8-64.6l16-99.2c3.2-21.4,2.4-34.59-8.2-34.59-20.6,0-50.2,50.19-65,109.79-6.8,27.6-17.8,78.8-3.21,84.8l-.79.8c-12.8,1.8-24.2,3.2-33.8,3.2-31.6,0-45.2-13.2-37-62.8l37.6-229.19c1.8-11.6-4-16-17-11l-.6-.6c14-6.8,42-15.6,61.19-15.6,22.8,0,31.6,8.4,27.2,35.6Z"/></svg>